<?xml version="1.0" encoding="UTF-8"?>
<svg width="405px" height="57px" viewBox="0 0 405 57" version="1.1" xmlns="http://www.w3.org/2000/svg" xmlns:xlink="http://www.w3.org/1999/xlink">
    <!-- Generator: Sketch 46.2 (44496) - http://www.bohemiancoding.com/sketch -->
    <title>Group</title>
    <desc>Created with Sketch.</desc>
    <defs></defs>
    <g id="Page-1" stroke="none" stroke-width="1" fill="none" fill-rule="evenodd">
        <g id="Login" transform="translate(-252.000000, -261.000000)">
            <g id="text" transform="translate(250.000000, 261.000000)">
                <g id="Group" transform="translate(2.000000, 0.000000)">
                    <path d="M34.72,45.4 L29.86,45.4 L29.86,40.6 C26.2999822,44.5200196 22.2000232,46.48 17.56,46.48 C12.9199768,46.48 8.9500165,44.7700171 5.65,41.35 C2.3499835,37.9299829 0.7,33.8500237 0.7,29.11 C0.7,24.3699763 2.3599834,20.3100169 5.68,16.93 C9.0000166,13.5499831 13.0499761,11.86 17.83,11.86 C22.6100239,11.86 26.6199838,13.7999806 29.86,17.68 L29.86,12.7 L34.72,12.7 L34.72,45.4 Z M17.92,41.86 C21.2400166,41.86 24.099988,40.660012 26.5,38.26 C28.900012,35.859988 30.1,32.8700179 30.1,29.29 C30.1,25.7099821 28.9200118,22.7100121 26.56,20.29 C24.1999882,17.8699879 21.3100171,16.66 17.89,16.66 C14.4699829,16.66 11.5800118,17.9099875 9.22,20.41 C6.8599882,22.9100125 5.68,25.859983 5.68,29.26 C5.68,32.660017 6.879988,35.6099875 9.28,38.11 C11.680012,40.6100125 14.5599832,41.86 17.92,41.86 Z M76.5708109,45.4 L71.7108109,45.4 L71.7108109,40.6 C68.1507931,44.5200196 64.0408342,46.48 59.3808109,46.48 C54.7207876,46.48 50.7508273,44.780017 47.4708109,41.38 C44.1907945,37.979983 42.5508109,33.9000238 42.5508109,29.14 C42.5508109,24.3799762 44.2107943,20.3100169 47.5308109,16.93 C50.8508275,13.5499831 54.900787,11.86 59.6808109,11.86 C64.4608348,11.86 68.4707947,13.7999806 71.7108109,17.68 L71.7108109,0.4 L76.5708109,0.4 L76.5708109,45.4 Z M59.7708109,41.86 C62.9308267,41.86 65.7507985,40.6800118 68.2308109,38.32 C70.7108233,35.9599882 71.9508109,32.9700181 71.9508109,29.35 C71.9508109,25.7299819 70.8008224,22.7100121 68.5008109,20.29 C66.2007994,17.8699879 63.3008284,16.66 59.8008109,16.66 C56.3007934,16.66 53.3808226,17.9099875 51.0408109,20.41 C48.7007992,22.9100125 47.5308109,25.8499831 47.5308109,29.23 C47.5308109,32.6100169 48.7307989,35.5599874 51.1308109,38.08 C53.5308229,40.6000126 56.4107941,41.86 59.7708109,41.86 Z M100.901622,17.02 L94.4216218,17.02 L94.4216218,39.94 C94.4216218,40.7800042 94.5416206,41.2899991 94.7816218,41.47 C95.021623,41.6500009 95.621617,41.74 96.5816218,41.74 L99.4616218,41.74 L99.4616218,46 C97.5416122,46.3200016 96.0816268,46.48 95.0816218,46.48 C93.1616122,46.48 91.7416264,46.0100047 90.8216218,45.07 C89.9016172,44.1299953 89.4416218,42.6400102 89.4416218,40.6 L89.4416218,17.02 L83.8016218,17.02 L83.8016218,12.7 L89.4416218,12.7 L89.4416218,0.4 L94.4216218,0.4 L94.4216218,12.7 L100.901622,12.7 L100.901622,17.02 Z M139.212433,29.92 L110.532433,29.92 C110.732434,33.520018 111.942422,36.4099891 114.162433,38.59 C116.382444,40.7700109 119.032417,41.86 122.112433,41.86 C127.352459,41.86 131.352419,39.2800258 134.112433,34.12 L138.312433,36.28 C136.432423,39.7600174 134.212446,42.3299917 131.652433,43.99 C129.09242,45.6500083 126.032451,46.48 122.472433,46.48 C117.552408,46.48 113.492449,44.7900169 110.292433,41.41 C107.092417,38.0299831 105.492433,33.9600238 105.492433,29.2 C105.492433,24.4399762 107.102417,20.360017 110.322433,16.96 C113.542449,13.559983 117.532409,11.86 122.292433,11.86 C127.052457,11.86 131.032417,13.4699839 134.232433,16.69 C137.432449,19.9100161 139.092432,24.319972 139.212433,29.92 Z M133.692433,25.54 C133.09243,22.739986 131.732443,20.5600078 129.612433,19 C127.492422,17.4399922 125.052447,16.66 122.292433,16.66 C116.692405,16.66 112.972442,19.6199704 111.132433,25.54 L133.692433,25.54 Z M178.783244,38.74 C177.063235,41.2600126 174.813258,43.1799934 172.033244,44.5 C169.25323,45.8200066 166.24326,46.48 163.003244,46.48 C157.963218,46.48 153.753261,44.8200166 150.373244,41.5 C146.993227,38.1799834 145.303244,34.120024 145.303244,29.32 C145.303244,24.519976 147.003227,20.4100171 150.403244,16.99 C153.803261,13.5699829 158.203217,11.86 163.603244,11.86 C166.80326,11.86 169.75323,12.559993 172.453244,13.96 C175.153257,15.360007 177.263236,17.3199874 178.783244,19.84 L174.883244,22.3 C171.963229,18.499981 168.143267,16.6 163.423244,16.6 C159.703225,16.6 156.583256,17.7899881 154.063244,20.17 C151.543231,22.5500119 150.283244,25.4999824 150.283244,29.02 C150.283244,32.5400176 151.523231,35.5599874 154.003244,38.08 C156.483256,40.6000126 159.623225,41.86 163.423244,41.86 C167.983266,41.86 171.823228,39.9400192 174.943244,36.1 L178.783244,38.74 Z M215.114055,45.4 L210.134055,45.4 L210.134055,29.8 C210.134055,26.7599848 210.044056,24.6200062 209.864055,23.38 C209.684054,22.1399938 209.274058,20.9700055 208.634055,19.87 C207.994051,18.7699945 207.12406,17.9300029 206.024055,17.35 C204.924049,16.7699971 203.604062,16.48 202.064055,16.48 C200.524047,16.48 199.054062,16.8399964 197.654055,17.56 C196.254048,18.2800036 195.05406,19.2799936 194.054055,20.56 C193.05405,21.8400064 192.364057,23.1999928 191.984055,24.64 C191.604053,26.0800072 191.414055,28.9599784 191.414055,33.28 L191.414055,45.4 L186.434055,45.4 L186.434055,0.4 L191.414055,0.4 L191.414055,17.62 C194.654071,13.7799808 198.494032,11.86 202.934055,11.86 C205.294066,11.86 207.434045,12.4699939 209.354055,13.69 C211.274064,14.9100061 212.71405,16.5899893 213.674055,18.73 C214.634059,20.8700107 215.114055,24.1599778 215.114055,28.6 L215.114055,45.4 Z" id="adtechnacity" fill="#FF7F00"></path>
                    <path d="M252.524866,45.4 L247.604866,45.4 L247.604866,29.8 C247.604866,26.199982 247.434867,23.7500065 247.094866,22.45 C246.754864,21.1499935 246.254869,20.0500045 245.594866,19.15 C244.934862,18.2499955 244.094871,17.5800022 243.074866,17.14 C242.05486,16.6999978 240.814873,16.48 239.354866,16.48 C237.894858,16.48 236.464873,16.8399964 235.064866,17.56 C233.664859,18.2800036 232.464871,19.2799936 231.464866,20.56 C230.464861,21.8400064 229.774867,23.1999928 229.394866,24.64 C229.014864,26.0800072 228.824866,28.9599784 228.824866,33.28 L228.824866,45.4 L223.844866,45.4 L223.844866,12.7 L228.824866,12.7 L228.824866,17.62 C232.064882,13.7799808 235.904843,11.86 240.344866,11.86 C242.704877,11.86 244.844856,12.4699939 246.764866,13.69 C248.684875,14.9100061 250.124861,16.5899893 251.084866,18.73 C252.04487,20.8700107 252.524866,24.1599778 252.524866,28.6 L252.524866,45.4 Z" id="Path" fill="#FFFFFF"></path>
                    <path d="M293.835676,45.4 L288.975676,45.4 L288.975676,40.6 C285.415659,44.5200196 281.3157,46.48 276.675676,46.48 C272.035653,46.48 268.065693,44.7700171 264.765676,41.35 C261.46566,37.9299829 259.815676,33.8500237 259.815676,29.11 C259.815676,24.3699763 261.47566,20.3100169 264.795676,16.93 C268.115693,13.5499831 272.165653,11.86 276.945676,11.86 C281.7257,11.86 285.73566,13.7999806 288.975676,17.68 L288.975676,12.7 L293.835676,12.7 L293.835676,45.4 Z M277.035676,41.86 C280.355693,41.86 283.215664,40.660012 285.615676,38.26 C288.015688,35.859988 289.215676,32.8700179 289.215676,29.29 C289.215676,25.7099821 288.035688,22.7100121 285.675676,20.29 C283.315665,17.8699879 280.425694,16.66 277.005676,16.66 C273.585659,16.66 270.695688,17.9099875 268.335676,20.41 C265.975665,22.9100125 264.795676,25.859983 264.795676,29.26 C264.795676,32.660017 265.995664,35.6099875 268.395676,38.11 C270.795688,40.6100125 273.67566,41.86 277.035676,41.86 Z" id="Combined-Shape" fill="#FFFFFF"></path>
                    <path d="M335.026487,38.74 C333.306479,41.2600126 331.056501,43.1799934 328.276487,44.5 C325.496473,45.8200066 322.486504,46.48 319.246487,46.48 C314.206462,46.48 309.996504,44.8200166 306.616487,41.5 C303.23647,38.1799834 301.546487,34.120024 301.546487,29.32 C301.546487,24.519976 303.24647,20.4100171 306.646487,16.99 C310.046504,13.5699829 314.44646,11.86 319.846487,11.86 C323.046503,11.86 325.996474,12.559993 328.696487,13.96 C331.396501,15.360007 333.50648,17.3199874 335.026487,19.84 L331.126487,22.3 C328.206473,18.499981 324.386511,16.6 319.666487,16.6 C315.946469,16.6 312.8265,17.7899881 310.306487,20.17 C307.786475,22.5500119 306.526487,25.4999824 306.526487,29.02 C306.526487,32.5400176 307.766475,35.5599874 310.246487,38.08 C312.7265,40.6000126 315.866468,41.86 319.666487,41.86 C324.22651,41.86 328.066472,39.9400192 331.186487,36.1 L335.026487,38.74 Z" id="Path" fill="#FFFFFF"></path>
                    <path d="M344.537298,0.4 C345.617304,0.4 346.527295,0.7699963 347.267298,1.51 C348.007302,2.2500037 348.377298,3.1499947 348.377298,4.21 C348.377298,5.2700053 348.007302,6.1699963 347.267298,6.91 C346.527295,7.6500037 345.627304,8.02 344.567298,8.02 C343.507293,8.02 342.607302,7.6400038 341.867298,6.88 C341.127295,6.1199962 340.757298,5.2300051 340.757298,4.21 C340.757298,3.1899949 341.127295,2.3000038 341.867298,1.54 C342.607302,0.7799962 343.497293,0.4 344.537298,0.4 Z" id="Path" fill="#FFFFFF"></path>
                    <polygon id="Path" fill="#FFFFFF" points="347.057298 45.4 342.077298 45.4 342.077298 12.7 347.057298 12.7"></polygon>
                    <path d="M370.548109,17.02 L364.068109,17.02 L364.068109,39.94 C364.068109,40.7800042 364.188108,41.2899991 364.428109,41.47 C364.66811,41.6500009 365.268104,41.74 366.228109,41.74 L369.108109,41.74 L369.108109,46 C367.1881,46.3200016 365.728114,46.48 364.728109,46.48 C362.8081,46.48 361.388114,46.0100047 360.468109,45.07 C359.548105,44.1299953 359.088109,42.6400102 359.088109,40.6 L359.088109,17.02 L353.448109,17.02 L353.448109,12.7 L359.088109,12.7 L359.088109,0.4 L364.068109,0.4 L364.068109,12.7 L370.548109,12.7 L370.548109,17.02 Z" id="Path" fill="#FFFFFF"></path>
                    <polygon id="Path" fill="#FFFFFF" points="404.53892 12.7 385.15892 56.98 379.99892 56.98 386.29892 42.58 373.03892 12.7 378.19892 12.7 388.93892 36.64 399.31892 12.7"></polygon>
                </g>
            </g>
        </g>
    </g>
</svg>