<?xml version="1.0" encoding="UTF-8"?>
<svg width="136px" height="20px" viewBox="0 0 136 20" version="1.1" xmlns="http://www.w3.org/2000/svg" xmlns:xlink="http://www.w3.org/1999/xlink">
    <!-- Generator: Sketch 46.2 (44496) - http://www.bohemiancoding.com/sketch -->
    <title>Group</title>
    <desc>Created with Sketch.</desc>
    <defs></defs>
    <g id="Page-1" stroke="none" stroke-width="1" fill="none" fill-rule="evenodd">
        <g id="User-Profile" transform="translate(-30.000000, -30.000000)">
            <g id="header">
                <g id="Group" transform="translate(30.000000, 30.000000)">
                    <path d="M12.24,15.8 L10.62,15.8 L10.62,14.2 C9.4333274,15.5066732 8.0666744,16.16 6.52,16.16 C4.9733256,16.16 3.6500055,15.5900057 2.55,14.45 C1.4499945,13.3099943 0.9,11.9500079 0.9,10.37 C0.9,8.7899921 1.4533278,7.4366723 2.56,6.31 C3.6666722,5.1833277 5.0166587,4.62 6.61,4.62 C8.2033413,4.62 9.5399946,5.2666602 10.62,6.56 L10.62,4.9 L12.24,4.9 L12.24,15.8 Z M6.64,14.62 C7.7466722,14.62 8.699996,14.220004 9.5,13.42 C10.300004,12.619996 10.7,11.6233393 10.7,10.43 C10.7,9.2366607 10.3066706,8.2366707 9.52,7.43 C8.7333294,6.6233293 7.7700057,6.22 6.63,6.22 C5.4899943,6.22 4.5266706,6.6366625 3.74,7.47 C2.9533294,8.3033375 2.56,9.286661 2.56,10.42 C2.56,11.553339 2.959996,12.5366625 3.76,13.37 C4.560004,14.2033375 5.5199944,14.62 6.64,14.62 Z M26.1902703,15.8 L24.5702703,15.8 L24.5702703,14.2 C23.3835977,15.5066732 22.0136114,16.16 20.4602703,16.16 C18.9069292,16.16 17.5836091,15.593339 16.4902703,14.46 C15.3969315,13.326661 14.8502703,11.9666746 14.8502703,10.38 C14.8502703,8.7933254 15.4035981,7.4366723 16.5102703,6.31 C17.6169425,5.1833277 18.966929,4.62 20.5602703,4.62 C22.1536116,4.62 23.4902649,5.2666602 24.5702703,6.56 L24.5702703,0.8 L26.1902703,0.8 L26.1902703,15.8 Z M20.5902703,14.62 C21.6436089,14.62 22.5835995,14.2266706 23.4102703,13.44 C24.2369411,12.6533294 24.6502703,11.6566727 24.6502703,10.45 C24.6502703,9.2433273 24.2669408,8.2366707 23.5002703,7.43 C22.7335998,6.6233293 21.7669428,6.22 20.6002703,6.22 C19.4335978,6.22 18.4602742,6.6366625 17.6802703,7.47 C16.9002664,8.3033375 16.5102703,9.2833277 16.5102703,10.41 C16.5102703,11.5366723 16.9102663,12.5199958 17.7102703,13.36 C18.5102743,14.2000042 19.4702647,14.62 20.5902703,14.62 Z M34.3005407,6.34 L32.1405407,6.34 L32.1405407,13.98 C32.1405407,14.2600014 32.1805403,14.4299997 32.2605407,14.49 C32.3405411,14.5500003 32.5405391,14.58 32.8605407,14.58 L33.8205407,14.58 L33.8205407,16 C33.1805375,16.1066672 32.6938757,16.16 32.3605407,16.16 C31.7205375,16.16 31.2472089,16.0033349 30.9405407,15.69 C30.6338725,15.3766651 30.4805407,14.8800034 30.4805407,14.2 L30.4805407,6.34 L28.6005407,6.34 L28.6005407,4.9 L30.4805407,4.9 L30.4805407,0.8 L32.1405407,0.8 L32.1405407,4.9 L34.3005407,4.9 L34.3005407,6.34 Z M47.070811,10.64 L37.510811,10.64 C37.577478,11.840006 37.9808073,12.8033297 38.720811,13.53 C39.4608147,14.2566703 40.3441392,14.62 41.370811,14.62 C43.1174864,14.62 44.4508064,13.7600086 45.370811,12.04 L46.770811,12.76 C46.1441412,13.9200058 45.4041486,14.7766639 44.550811,15.33 C43.6974734,15.8833361 42.6774836,16.16 41.490811,16.16 C39.8508028,16.16 38.497483,15.5966723 37.430811,14.47 C36.364139,13.3433277 35.830811,11.9866746 35.830811,10.4 C35.830811,8.8133254 36.3674723,7.453339 37.440811,6.32 C38.5141497,5.186661 39.8441364,4.62 41.430811,4.62 C43.0174856,4.62 44.344139,5.1566613 45.410811,6.23 C46.477483,7.3033387 47.0308108,8.773324 47.070811,10.64 Z M45.230811,9.18 C45.03081,8.246662 44.5774812,7.5200026 43.870811,7 C43.1641408,6.4799974 42.3508156,6.22 41.430811,6.22 C39.564135,6.22 38.3241474,7.2066568 37.710811,9.18 L45.230811,9.18 Z M60.2610814,13.58 C59.6877452,14.4200042 58.9377527,15.0599978 58.0110814,15.5 C57.0844101,15.9400022 56.0810868,16.16 55.0010814,16.16 C53.321073,16.16 51.9177537,15.6066722 50.7910814,14.5 C49.6644091,13.3933278 49.1010814,12.040008 49.1010814,10.44 C49.1010814,8.839992 49.6677424,7.4700057 50.8010814,6.33 C51.9344204,5.1899943 53.4010724,4.62 55.2010814,4.62 C56.2677534,4.62 57.2510769,4.853331 58.1510814,5.32 C59.0510859,5.786669 59.7544122,6.4399958 60.2610814,7.28 L58.9610814,8.1 C57.9877432,6.833327 56.7144226,6.2 55.1410814,6.2 C53.9010752,6.2 52.8610856,6.5966627 52.0210814,7.39 C51.1810772,8.1833373 50.7610814,9.1666608 50.7610814,10.34 C50.7610814,11.5133392 51.1744106,12.5199958 52.0010814,13.36 C52.8277522,14.2000042 53.8744084,14.62 55.1410814,14.62 C56.661089,14.62 57.9410762,13.9800064 58.9810814,12.7 L60.2610814,13.58 Z M72.3713517,15.8 L70.7113517,15.8 L70.7113517,10.6 C70.7113517,9.5866616 70.681352,8.8733354 70.6213517,8.46 C70.5613514,8.0466646 70.4246861,7.6566685 70.2113517,7.29 C69.9980173,6.9233315 69.7080202,6.6433343 69.3413517,6.45 C68.9746832,6.2566657 68.5346876,6.16 68.0213517,6.16 C67.5080158,6.16 67.0180207,6.2799988 66.5513517,6.52 C66.0846827,6.7600012 65.6846867,7.0933312 65.3513517,7.52 C65.0180167,7.9466688 64.788019,8.3999976 64.6613517,8.88 C64.5346844,9.3600024 64.4713517,10.3199928 64.4713517,11.76 L64.4713517,15.8 L62.8113517,15.8 L62.8113517,0.8 L64.4713517,0.8 L64.4713517,6.54 C65.5513571,5.2599936 66.8313443,4.62 68.3113517,4.62 C69.0980223,4.62 69.8113485,4.8233313 70.4513517,5.23 C71.0913549,5.6366687 71.5713501,6.1966631 71.8913517,6.91 C72.2113533,7.6233369 72.3713517,8.7199926 72.3713517,10.2 L72.3713517,15.8 Z" id="adtechnacity" fill="#FF7F00"></path>
                    <path d="M84.8416221,15.8 L83.2016221,15.8 L83.2016221,10.6 C83.2016221,9.399994 83.144956,8.5833355 83.0316221,8.15 C82.9182882,7.7166645 82.7516232,7.3500015 82.5316221,7.05 C82.311621,6.7499985 82.0316238,6.5266674 81.6916221,6.38 C81.3516204,6.2333326 80.9382912,6.16 80.4516221,6.16 C79.964953,6.16 79.4882911,6.2799988 79.0216221,6.52 C78.5549531,6.7600012 78.1549571,7.0933312 77.8216221,7.52 C77.4882871,7.9466688 77.2582894,8.3999976 77.1316221,8.88 C77.0049548,9.3600024 76.9416221,10.3199928 76.9416221,11.76 L76.9416221,15.8 L75.2816221,15.8 L75.2816221,4.9 L76.9416221,4.9 L76.9416221,6.54 C78.0216275,5.2599936 79.3016147,4.62 80.7816221,4.62 C81.5682927,4.62 82.2816189,4.8233313 82.9216221,5.23 C83.5616253,5.6366687 84.0416205,6.1966631 84.3616221,6.91 C84.6816237,7.6233369 84.8416221,8.7199926 84.8416221,10.2 L84.8416221,15.8 Z" id="Path" fill="#191E33"></path>
                    <path d="M98.6118924,15.8 L96.9918924,15.8 L96.9918924,14.2 C95.8052198,15.5066732 94.4385668,16.16 92.8918924,16.16 C91.345218,16.16 90.0218979,15.5900057 88.9218924,14.45 C87.8218869,13.3099943 87.2718924,11.9500079 87.2718924,10.37 C87.2718924,8.7899921 87.8252202,7.4366723 88.9318924,6.31 C90.0385646,5.1833277 91.3885511,4.62 92.9818924,4.62 C94.5752337,4.62 95.911887,5.2666602 96.9918924,6.56 L96.9918924,4.9 L98.6118924,4.9 L98.6118924,15.8 Z M93.0118924,14.62 C94.1185646,14.62 95.0718884,14.220004 95.8718924,13.42 C96.6718964,12.619996 97.0718924,11.6233393 97.0718924,10.43 C97.0718924,9.2366607 96.678563,8.2366707 95.8918924,7.43 C95.1052218,6.6233293 94.1418981,6.22 93.0018924,6.22 C91.8618867,6.22 90.898563,6.6366625 90.1118924,7.47 C89.3252218,8.3033375 88.9318924,9.286661 88.9318924,10.42 C88.9318924,11.553339 89.3318884,12.5366625 90.1318924,13.37 C90.9318964,14.2033375 91.8918868,14.62 93.0118924,14.62 Z" id="Combined-Shape" fill="#191E33"></path>
                    <path d="M112.342163,13.58 C111.768827,14.4200042 111.018834,15.0599978 110.092163,15.5 C109.165491,15.9400022 108.162168,16.16 107.082163,16.16 C105.402154,16.16 103.998835,15.6066722 102.872163,14.5 C101.74549,13.3933278 101.182163,12.040008 101.182163,10.44 C101.182163,8.839992 101.748824,7.4700057 102.882163,6.33 C104.015502,5.1899943 105.482154,4.62 107.282163,4.62 C108.348835,4.62 109.332158,4.853331 110.232163,5.32 C111.132167,5.786669 111.835494,6.4399958 112.342163,7.28 L111.042163,8.1 C110.068825,6.833327 108.795504,6.2 107.222163,6.2 C105.982157,6.2 104.942167,6.5966627 104.102163,7.39 C103.262159,8.1833373 102.842163,9.1666608 102.842163,10.34 C102.842163,11.5133392 103.255492,12.5199958 104.082163,13.36 C104.908834,14.2000042 105.95549,14.62 107.222163,14.62 C108.74217,14.62 110.022158,13.9800064 111.062163,12.7 L112.342163,13.58 Z" id="Path" fill="#191E33"></path>
                    <path d="M115.512433,0.8 C115.872435,0.8 116.175765,0.9233321 116.422433,1.17 C116.669101,1.4166679 116.792433,1.7166649 116.792433,2.07 C116.792433,2.4233351 116.669101,2.7233321 116.422433,2.97 C116.175765,3.2166679 115.875768,3.34 115.522433,3.34 C115.169098,3.34 114.869101,3.2133346 114.622433,2.96 C114.375765,2.7066654 114.252433,2.4100017 114.252433,2.07 C114.252433,1.7299983 114.375765,1.4333346 114.622433,1.18 C114.869101,0.9266654 115.165765,0.8 115.512433,0.8 Z" id="Path" fill="#191E33"></path>
                    <polygon id="Path" fill="#191E33" points="116.352433 15.8 114.692433 15.8 114.692433 4.9 116.352433 4.9"></polygon>
                    <path d="M124.182703,6.34 L122.022703,6.34 L122.022703,13.98 C122.022703,14.2600014 122.062703,14.4299997 122.142703,14.49 C122.222704,14.5500003 122.422702,14.58 122.742703,14.58 L123.702703,14.58 L123.702703,16 C123.0627,16.1066672 122.576038,16.16 122.242703,16.16 C121.6027,16.16 121.129372,16.0033349 120.822703,15.69 C120.516035,15.3766651 120.362703,14.8800034 120.362703,14.2 L120.362703,6.34 L118.482703,6.34 L118.482703,4.9 L120.362703,4.9 L120.362703,0.8 L122.022703,0.8 L122.022703,4.9 L124.182703,4.9 L124.182703,6.34 Z" id="Path" fill="#191E33"></path>
                    <polygon id="Path" fill="#191E33" points="135.512974 4.9 129.052974 19.66 127.332974 19.66 129.432974 14.86 125.012974 4.9 126.732974 4.9 130.312974 12.88 133.772974 4.9"></polygon>
                </g>
            </g>
        </g>
    </g>
</svg>